<svg width="24" height="24" viewBox="0 0 24 24" fill="none" xmlns="http://www.w3.org/2000/svg">
<path d="M20.0328 19.9949H3.96777C3.1227 19.9939 2.31252 19.6577 1.71497 19.0602C1.11741 18.4626 0.781266 17.6525 0.780273 16.8074V7.19238C0.781266 6.34731 1.11741 5.53713 1.71497 4.93958C2.31252 4.34202 3.1227 4.00588 3.96777 4.00488H20.0328C20.8778 4.00588 21.688 4.34202 22.2856 4.93958C22.8831 5.53713 23.2193 6.34731 23.2203 7.19238V16.8074C23.2193 17.6525 22.8831 18.4626 22.2856 19.0602C21.688 19.6577 20.8778 19.9939 20.0328 19.9949ZM3.96777 5.12988C3.42076 5.12988 2.89616 5.34718 2.50937 5.73397C2.12257 6.12077 1.90527 6.64537 1.90527 7.19238V16.8074C1.90527 17.3544 2.12257 17.879 2.50937 18.2658C2.89616 18.6526 3.42076 18.8699 3.96777 18.8699H20.0328C20.5798 18.8699 21.1044 18.6526 21.4912 18.2658C21.878 17.879 22.0953 17.3544 22.0953 16.8074V7.19238C22.0953 6.64537 21.878 6.12077 21.4912 5.73397C21.1044 5.34718 20.5798 5.12988 20.0328 5.12988H3.96777Z" fill="#E8E8E8"/>
<path d="M12.0004 14.2798C11.3065 14.2809 10.6311 14.0558 10.0767 13.6386L1.32042 7.01609C1.25855 6.97267 1.20607 6.91722 1.16611 6.85307C1.12614 6.78891 1.09952 6.71736 1.08783 6.64269C1.07613 6.56802 1.07961 6.49175 1.09805 6.41845C1.11648 6.34515 1.1495 6.27632 1.19514 6.21607C1.24077 6.15581 1.29807 6.10537 1.36363 6.06776C1.42919 6.03015 1.50166 6.00613 1.57671 5.99715C1.65176 5.98817 1.72784 5.9944 1.80043 6.01548C1.87301 6.03656 1.9406 6.07205 1.99917 6.11984L10.7554 12.7498C11.115 13.0183 11.5517 13.1633 12.0004 13.1633C12.4491 13.1633 12.8858 13.0183 13.2454 12.7498L22.0017 6.11984C22.0602 6.07205 22.1278 6.03656 22.2004 6.01548C22.273 5.9944 22.3491 5.98817 22.4241 5.99715C22.4992 6.00613 22.5716 6.03015 22.6372 6.06776C22.7028 6.10537 22.7601 6.15581 22.8057 6.21607C22.8513 6.27632 22.8843 6.34515 22.9028 6.41845C22.9212 6.49175 22.9247 6.56802 22.913 6.64269C22.9013 6.71736 22.8747 6.78891 22.8347 6.85307C22.7948 6.91722 22.7423 6.97267 22.6804 7.01609L13.9242 13.6386C13.3697 14.0558 12.6943 14.2809 12.0004 14.2798Z" fill="#E8E8E8"/>
<path d="M1.56333 18.4277C1.44924 18.4279 1.3378 18.3934 1.2438 18.3287C1.14979 18.2641 1.07766 18.1724 1.03698 18.0658C0.996297 17.9592 0.988986 17.8428 1.01602 17.732C1.04305 17.6211 1.10314 17.5211 1.18833 17.4452L8.08833 11.2915C8.19972 11.192 8.34605 11.1409 8.49515 11.1493C8.64424 11.1578 8.78387 11.2251 8.88333 11.3365C8.98278 11.4479 9.03392 11.5942 9.02548 11.7433C9.01704 11.8924 8.94972 12.032 8.83833 12.1315L1.93833 18.2852C1.83586 18.3785 1.70185 18.4294 1.56333 18.4277ZM22.4358 18.4277C22.2973 18.4294 22.1633 18.3785 22.0608 18.2852L15.1608 12.1315C15.0494 12.032 14.9821 11.8924 14.9737 11.7433C14.9652 11.5942 15.0164 11.4479 15.1158 11.3365C15.2153 11.2251 15.3549 11.1578 15.504 11.1493C15.6531 11.1409 15.7994 11.192 15.9108 11.2915L22.8071 17.4452C22.8923 17.5211 22.9524 17.6211 22.9794 17.732C23.0064 17.8428 22.9991 17.9592 22.9584 18.0658C22.9177 18.1724 22.8456 18.2641 22.7516 18.3287C22.6576 18.3934 22.5462 18.4279 22.4321 18.4277H22.4358Z" fill="#E8E8E8"/>
</svg>
