<svg width="24" height="24" viewBox="0 0 24 24" fill="none" xmlns="http://www.w3.org/2000/svg">
<path fill-rule="evenodd" clip-rule="evenodd" d="M9.25 11C9.25 10.2707 9.53973 9.57118 10.0555 9.05546C10.5712 8.53973 11.2707 8.25 12 8.25C12.7293 8.25 13.4288 8.53973 13.9445 9.05546C14.4603 9.57118 14.75 10.2707 14.75 11C14.75 11.7293 14.4603 12.4288 13.9445 12.9445C13.4288 13.4603 12.7293 13.75 12 13.75C11.2707 13.75 10.5712 13.4603 10.0555 12.9445C9.53973 12.4288 9.25 11.7293 9.25 11ZM12 9.75C11.6685 9.75 11.3505 9.8817 11.1161 10.1161C10.8817 10.3505 10.75 10.6685 10.75 11C10.75 11.3315 10.8817 11.6495 11.1161 11.8839C11.3505 12.1183 11.6685 12.25 12 12.25C12.3315 12.25 12.6495 12.1183 12.8839 11.8839C13.1183 11.6495 13.25 11.3315 13.25 11C13.25 10.6685 13.1183 10.3505 12.8839 10.1161C12.6495 9.8817 12.3315 9.75 12 9.75Z" fill="#E8E8E8"/>
<path d="M9.25 18.0267C9.25 17.1617 9.824 16.4017 10.655 16.1637C11.5341 15.9124 12.4659 15.9124 13.345 16.1637C13.7498 16.2795 14.1058 16.5239 14.3593 16.86C14.6128 17.1962 14.7499 17.6057 14.75 18.0267V18.4997C14.75 18.6986 14.829 18.8894 14.9697 19.03C15.1103 19.1707 15.3011 19.2497 15.5 19.2497C15.6989 19.2497 15.8897 19.1707 16.0303 19.03C16.171 18.8894 16.25 18.6986 16.25 18.4997V18.0267C16.2499 17.2798 16.0065 16.5532 15.5567 15.9569C15.1069 15.3606 14.4752 14.927 13.757 14.7217C12.6086 14.3936 11.3914 14.3936 10.243 14.7217C9.52485 14.927 8.89309 15.3606 8.44329 15.9569C7.99349 16.5532 7.75012 17.2798 7.75 18.0267V18.4997C7.75 18.6986 7.82902 18.8894 7.96967 19.03C8.11032 19.1707 8.30109 19.2497 8.5 19.2497C8.69891 19.2497 8.88968 19.1707 9.03033 19.03C9.17098 18.8894 9.25 18.6986 9.25 18.4997V18.0267Z" fill="#E8E8E8"/>
<path fill-rule="evenodd" clip-rule="evenodd" d="M11.217 1.7496C10.894 1.7496 10.598 1.7496 10.353 1.7746C10.086 1.8016 9.798 1.8646 9.528 2.0446C9.33684 2.17231 9.17271 2.33644 9.045 2.5276C8.865 2.7976 8.802 3.0856 8.775 3.3526C8.76241 3.48626 8.75507 3.62036 8.753 3.7546C8.151 3.7616 7.628 3.7806 7.176 3.8316C6.422 3.9166 5.773 4.0976 5.217 4.5246C4.957 4.7246 4.724 4.9566 4.525 5.2166C4.098 5.7726 3.917 6.4216 3.832 7.1766C3.75 7.9056 3.75 8.8196 3.75 9.9546V15.5546C3.75 16.9216 3.75 18.0246 3.867 18.8916C3.987 19.7916 4.247 20.5496 4.848 21.1516C5.45 21.7536 6.208 22.0116 7.108 22.1336C7.975 22.2496 9.078 22.2496 10.445 22.2496H13.555C14.922 22.2496 16.025 22.2496 16.892 22.1336C17.792 22.0116 18.55 21.7536 19.152 21.1516C19.754 20.5496 20.012 19.7916 20.134 18.8916C20.25 18.0246 20.25 16.9216 20.25 15.5546V9.9546C20.25 8.8196 20.25 7.9046 20.168 7.1756C20.083 6.4216 19.902 5.7726 19.475 5.2166C19.2756 4.9567 19.0429 4.72405 18.783 4.5246C18.227 4.0976 17.578 3.9166 16.823 3.8316C16.372 3.7816 15.849 3.7616 15.247 3.7546C15.2449 3.62037 15.2376 3.48626 15.225 3.3526C15.198 3.0856 15.135 2.7976 14.955 2.5276C14.8273 2.33644 14.6632 2.17231 14.472 2.0446C14.202 1.8646 13.914 1.8016 13.647 1.7746C13.3596 1.75262 13.0712 1.74428 12.783 1.7496H11.217ZM15.212 5.2536C15.794 5.2606 16.262 5.2776 16.656 5.3226C17.276 5.3926 17.618 5.5216 17.87 5.7146C18.026 5.8346 18.165 5.9746 18.285 6.1296C18.478 6.3816 18.607 6.7236 18.677 7.3436C18.749 7.9796 18.75 8.8096 18.75 9.9996V15.4996C18.75 16.9346 18.748 17.9356 18.647 18.6916C18.548 19.4256 18.367 19.8136 18.091 20.0906C17.814 20.3676 17.426 20.5476 16.691 20.6466C15.937 20.7476 14.935 20.7496 13.5 20.7496H10.5C9.065 20.7496 8.063 20.7476 7.308 20.6466C6.574 20.5476 6.186 20.3666 5.909 20.0906C5.632 19.8136 5.452 19.4256 5.353 18.6906C5.252 17.9356 5.25 16.9346 5.25 15.4996V9.9996C5.25 8.8096 5.251 7.9796 5.323 7.3436C5.393 6.7236 5.522 6.3816 5.715 6.1296C5.835 5.9736 5.975 5.8346 6.13 5.7146C6.382 5.5216 6.724 5.3926 7.344 5.3226C7.738 5.2776 8.206 5.2606 8.788 5.2536C8.821 5.4896 8.888 5.7376 9.045 5.9716C9.173 6.1626 9.337 6.3266 9.528 6.4546C9.798 6.6346 10.086 6.6976 10.353 6.7246C10.598 6.7496 10.894 6.7496 11.217 6.7496H12.783C13.106 6.7496 13.402 6.7496 13.647 6.7246C13.914 6.6976 14.202 6.6346 14.472 6.4546C14.6632 6.32689 14.8273 6.16276 14.955 5.9716C15.0946 5.75513 15.1825 5.50947 15.212 5.2536ZM10.504 3.2666C10.4544 3.26957 10.4054 3.27864 10.358 3.2936C10.3328 3.31109 10.3111 3.33313 10.294 3.3586C10.2792 3.40566 10.2701 3.45435 10.267 3.5036C10.251 3.6636 10.25 3.8836 10.25 4.2496C10.25 4.6166 10.25 4.8346 10.267 4.9956C10.2701 5.04485 10.2792 5.09354 10.294 5.1406C10.311 5.1666 10.334 5.1886 10.359 5.2056C10.369 5.2106 10.409 5.2226 10.504 5.2326C10.664 5.2486 10.884 5.2496 11.25 5.2496H12.75C13.117 5.2496 13.335 5.2496 13.496 5.2326C13.5453 5.22953 13.5939 5.22046 13.641 5.2056C13.6665 5.18814 13.6885 5.1661 13.706 5.1406C13.7208 5.09354 13.7299 5.04485 13.733 4.9956C13.749 4.8356 13.75 4.6156 13.75 4.2496C13.75 3.8826 13.75 3.6646 13.733 3.5036C13.7299 3.45435 13.7208 3.40566 13.706 3.3586C13.6885 3.3331 13.6665 3.31106 13.641 3.2936C13.5939 3.27872 13.5453 3.26965 13.496 3.2666C13.2477 3.24992 12.9988 3.24425 12.75 3.2496H11.25C10.883 3.2496 10.665 3.2496 10.504 3.2666Z" fill="#E8E8E8"/>
</svg>
