<svg width="24" height="24" viewBox="0 0 24 24" fill="none" xmlns="http://www.w3.org/2000/svg">
<path d="M4.57617 2.18848C5.15581 2.10057 5.74858 2.1929 6.27344 2.4541L20.3047 9.46973H20.3115C20.7705 9.70725 21.1573 10.0646 21.4287 10.5049C21.7057 10.9543 21.8525 11.4721 21.8525 12C21.8525 12.5279 21.7056 13.0457 21.4287 13.4951C21.1517 13.9446 20.7548 14.3086 20.2832 14.5459L6.2832 21.5459C5.88314 21.7417 5.44441 21.8451 4.99902 21.8496C4.52458 21.8493 4.05756 21.7313 3.64062 21.5049C3.22329 21.2782 2.86898 20.9501 2.61035 20.5518C2.35188 20.1535 2.1974 19.6969 2.16016 19.2236C2.12292 18.7504 2.20449 18.2755 2.39746 17.8418L4.79688 12.4717L4.79883 12.4678C4.86088 12.3197 4.89258 12.1606 4.89258 12C4.89256 11.8394 4.86092 11.6803 4.79883 11.5322L4.79688 11.5293L2.39746 6.15918C2.16025 5.62317 2.09412 5.02714 2.20801 4.45215C2.32197 3.87703 2.61036 3.35044 3.03418 2.94531C3.45796 2.54029 3.99659 2.27639 4.57617 2.18848ZM4.83496 3.87598C4.60341 3.91321 4.38866 4.02092 4.21973 4.18359C4.05093 4.34621 3.9356 4.5563 3.88965 4.78613C3.84371 5.01608 3.86945 5.25465 3.96289 5.46973V5.4707L6.35254 10.8389V10.8398C6.38111 10.9061 6.40611 10.9738 6.42676 11.043L6.45898 11.1504H13.46C13.6854 11.1504 13.9021 11.24 14.0615 11.3994C14.2207 11.5588 14.3105 11.7747 14.3105 12C14.3105 12.2254 14.2209 12.4422 14.0615 12.6016C13.9021 12.7609 13.6854 12.8506 13.46 12.8506H6.45898L6.42676 12.957C6.40626 13.0257 6.38183 13.0934 6.35352 13.1592L3.96289 18.5293V18.5303C3.86944 18.7453 3.84373 18.9839 3.88965 19.2139C3.93559 19.4438 4.0508 19.6547 4.21973 19.8174C4.38863 19.98 4.6035 20.0868 4.83496 20.124C5.06647 20.1612 5.30425 20.1269 5.51562 20.0254L19.5176 13.0244L19.5186 13.0234C19.7069 12.9269 19.8652 12.7802 19.9756 12.5996C20.0859 12.4191 20.1445 12.2115 20.1445 12C20.1445 11.7884 20.0859 11.5809 19.9756 11.4004C19.8652 11.2198 19.7069 11.0731 19.5186 10.9766L19.5176 10.9756L5.51562 3.97461L5.35254 3.91113C5.18573 3.86033 5.00863 3.84808 4.83496 3.87598Z" fill="#E8E8E8" stroke="white" stroke-width="0.3"/>
</svg>
