<svg width="43" height="43" viewBox="0 0 43 43" fill="none" xmlns="http://www.w3.org/2000/svg">
<rect width="43" height="43" rx="21.5" fill="url(#paint0_linear_839_6699)"/>
<path d="M23.0767 27.4902C23.0767 27.8425 22.9042 28.1803 22.5971 28.4294C22.2901 28.6784 21.8736 28.8184 21.4394 28.8184C21.0052 28.8184 20.5887 28.6784 20.2817 28.4294C19.9747 28.1803 19.8022 27.8425 19.8022 27.4902C19.8022 27.138 19.9747 26.8002 20.2817 26.5511C20.5887 26.302 21.0052 26.1621 21.4394 26.1621C21.8736 26.1621 22.2901 26.302 22.5971 26.5511C22.9042 26.8002 23.0767 27.138 23.0767 27.4902ZM21.4997 25.2175C20.5763 25.2175 19.8264 24.656 19.8264 23.9638V22.4816C19.8264 21.5663 20.7013 20.7811 21.9024 20.6148C22.9234 20.474 23.6595 19.803 23.6595 19.0232V18.3623C23.6595 17.4624 22.7152 16.7138 21.5488 16.6926C20.9761 16.6786 20.4189 16.8446 19.9934 17.1558C19.5769 17.4624 19.3477 17.873 19.3477 18.3102C19.3477 19.0019 18.5978 19.564 17.6744 19.564C16.751 19.564 15.9939 19.0019 15.9939 18.3049C15.9939 17.1872 16.584 16.1364 17.6462 15.3565C18.7157 14.5755 20.125 14.1548 21.6182 14.1808C24.5895 14.2276 27.0061 16.105 27.0061 18.357V19.0232C27.0061 20.8066 25.4847 22.3642 23.2908 22.9263C23.2569 22.9347 23.2271 22.9518 23.2059 22.9749C23.1847 22.998 23.1732 23.026 23.1729 23.0548V23.959C23.1729 24.656 22.4237 25.2175 21.4997 25.2175Z" fill="white"/>
<defs>
<linearGradient id="paint0_linear_839_6699" x1="8.40302" y1="-1.93992e-07" x2="34.597" y2="43" gradientUnits="userSpaceOnUse">
<stop stop-color="#2F90AB"/>
<stop offset="1" stop-color="#133A45"/>
</linearGradient>
</defs>
</svg>
