<svg width="1287" height="652" viewBox="0 0 1287 652" fill="none" xmlns="http://www.w3.org/2000/svg">
<path d="M490.921 543.271H801.869M0.471162 15.1153L0.471133 651.747M41.9309 15.1153L41.9309 651.747M83.3906 15.1153L83.3906 651.747M124.85 15.1153L124.85 651.747M166.31 15.1153L166.31 651.747M207.77 15.1153L207.77 651.747M249.23 15.1153L249.23 651.747M290.689 15.1153L290.689 651.747M332.149 15.1153L332.149 651.747M0 626.406H1285.25M373.609 15.1153L373.609 651.747M0 587.284H1285.25M415.069 15.1153L415.069 651.747M0 548.161H1285.25M456.528 15.1153L456.528 651.747M0 509.038H1285.25M497.988 15.1153L497.988 651.747M0 469.916H1285.25M539.448 15.1153L539.448 651.747M0 430.793H1285.25M580.908 15.1153L580.907 651.747M0 391.671H1285.25M622.367 15.1153L622.367 651.747M0 352.548H1285.25M663.827 15.1153L663.827 651.747M0 313.425H1285.25M705.287 15.1153L705.287 651.747M0 274.303H1285.25M746.747 15.1153L746.746 651.747M0 235.18H1285.25M788.206 15.1153L788.206 651.747M0 196.057H1285.25M829.666 15.1153L829.666 651.747M0 156.935H1285.25M871.126 15.1153L871.126 651.747M0 117.812H1285.25M912.585 15.1153L912.585 651.747M0 78.6896H1285.25M954.045 15.1153L954.045 651.747M0 39.567H1285.25M995.505 15.1153V651.747M0 0.444336L1285.25 0.444336M1036.96 15.1153V651.747M1078.42 15.1153V651.747M1119.88 15.1153V651.747M1161.34 15.1153V651.747M1202.8 15.1153V651.747M1244.26 15.1153V651.747M1285.72 15.1153V651.747" stroke="url(#paint0_radial_9_732)" stroke-width="0.888544"/>
<defs>
<radialGradient id="paint0_radial_9_732" cx="0" cy="0" r="1" gradientUnits="userSpaceOnUse" gradientTransform="translate(642.862 287.444) rotate(90) scale(364.303 719.163)">
<stop stop-color="#2F90AB" stop-opacity="0.3"/>
<stop offset="0.6" stop-color="white" stop-opacity="0"/>
</radialGradient>
</defs>
</svg>
