<svg width="1440" height="1570" viewBox="0 0 1440 1570" fill="none" xmlns="http://www.w3.org/2000/svg">
<g opacity="0.25">
<path d="M487.799 142.466C122.002 275.746 -43.4146 489.567 127.169 541.733C315.623 599.324 1357.7 350.771 1472.45 300.736C1587.21 250.701 590.021 396.17 704.243 278.761C831.114 148.422 1577.3 -18.8393 1547.69 -55.7304C1518.59 -92.0346 910.628 -11.5874 487.799 142.466Z" stroke="#2F90AB" stroke-opacity="0.2" stroke-width="5" stroke-miterlimit="10"/>
<path d="M367.177 156.925C-64.8747 298.443 -210.846 545.109 5.31229 597.501C250.284 656.81 1376.91 362.162 1541.63 307.2C1683.64 259.845 717.963 371.404 807.077 240.487C903.777 98.2775 1572.63 -71.1029 1516.38 -86.476C1455.95 -102.925 874.195 -9.01988 367.177 156.925Z" stroke="#2F90AB" stroke-opacity="0.2" stroke-width="5" stroke-miterlimit="10"/>
<path d="M246.564 171.408C-251.068 320.873 -377.926 600.543 -116.547 653.24C185.437 714.268 1387 375.231 1610.82 313.689C1773.5 268.863 846.761 346.586 909.784 202.185C977.067 48.1591 1582.78 -128.254 1485.12 -117.037C1409.9 -119.071 839.669 -6.7689 246.564 171.408Z" stroke="#2F90AB" stroke-opacity="0.2" stroke-width="5" stroke-miterlimit="10"/>
<path d="M125.918 185.786C-436.881 343.385 -544.688 655.792 -238.074 708.848C121.331 771.224 1417.48 403.926 1680.34 320.02C1844.99 267.453 976.36 321.531 1012.84 163.831C1051.29 -2.14211 1585.8 -183.054 1454.17 -147.783C1355.54 -132.602 805.052 -4.3306 125.918 185.786Z" stroke="#2F90AB" stroke-opacity="0.2" stroke-width="5" stroke-miterlimit="10"/>
<path d="M5.30058 200.325C-622.414 366.087 -711.198 711.098 -360.279 764.775C56.6903 828.58 1413.44 421.725 1749.17 326.644C1937.57 273.261 1105.64 296.743 1115.33 125.717C1124.83 -52.177 1602.33 -233.717 1422.54 -178.262C1307.36 -142.762 770.692 -1.8098 5.30058 200.325Z" stroke="#2F90AB" stroke-opacity="0.2" stroke-width="5" stroke-miterlimit="10"/>
<path d="M-115.193 214.753C-807.91 388.836 -877.578 766.319 -482.131 820.512C-7.2513 885.64 1405.14 410.521 1818.51 333.211C2032.7 293.098 1235.77 271.793 1218.19 87.5196C1200.29 -102.585 1608.49 -290.535 1391.29 -208.772C1256.09 -158.018 736.492 0.759511 -115.193 214.753Z" stroke="#2F90AB" stroke-opacity="0.2" stroke-width="5" stroke-miterlimit="10"/>
<path d="M-235.804 229.237C-993.407 411.614 -1043.88 821.383 -604.1 876.304C-71.0876 942.648 1412.66 420.361 1887.56 339.592C2119.9 300.086 1365.74 246.685 1320.77 49.1899C1274.73 -153.073 1610.91 -346.402 1359.87 -239.493C1202.42 -172.427 702.298 3.38401 -235.804 229.237Z" stroke="#2F90AB" stroke-opacity="0.2" stroke-width="5" stroke-miterlimit="10"/>
<path d="M-356.454 243.698C-1178.92 434.45 -1209.82 876.532 -725.984 932.074C-135.191 999.715 1421.35 429.518 1956.71 346.086C2207.77 306.948 1496.04 221.529 1423.58 10.9191C1349.77 -203.474 1612.46 -401.628 1328.56 -270.103C1147.93 -186.461 667.854 6.14582 -356.454 243.698Z" stroke="#2F90AB" stroke-opacity="0.2" stroke-width="5" stroke-miterlimit="10"/>
<path d="M-477.067 258.154C-1364.4 457.307 -1376.33 931.727 -847.832 987.838C-199.023 1056.72 1431.09 438.273 2025.92 352.6C2296.26 313.673 1626.5 196.421 1526.31 -27.3045C1424.85 -253.908 1613.86 -456.567 1297.29 -300.719C1093.04 -200.235 633.805 8.84974 -477.067 258.154Z" stroke="#2F90AB" stroke-opacity="0.2" stroke-width="5" stroke-miterlimit="10"/>
<path d="M-597.689 272.639C-1550.45 480.432 -1542.51 986.82 -969.701 1043.58C-263.118 1113.73 1441.7 446.527 2095.09 359.038C2385.19 320.189 1756.94 171.237 1629.01 -65.5781C1500.02 -304.419 1615.5 -511.503 1265.87 -331.358C1038.04 -213.9 599.518 11.6627 -597.689 272.639Z" stroke="#2F90AB" stroke-opacity="0.2" stroke-width="5" stroke-miterlimit="10"/>
<path d="M-718.314 287.096C-1735.59 503.159 -1708.92 1041.96 -1091.56 1099.35C-326.498 1170.61 1453.47 454.49 2164.27 365.528C2474.47 326.651 1887.61 146.025 1731.84 -103.853C1575.3 -354.957 1616.69 -566.201 1234.59 -361.972C982.932 -227.488 565.123 14.5269 -718.314 287.096Z" stroke="#2F90AB" stroke-opacity="0.2" stroke-width="5" stroke-miterlimit="10"/>
<path d="M-838.944 301.554C-1921.19 526.098 -1874.64 1096.95 -1213.42 1155.11C-390.124 1227.51 1464.76 462.478 2233.43 371.938C2563.87 333.061 2018.17 120.866 1834.53 -142.181C1650.57 -405.549 1618.12 -620.979 1203.28 -392.665C927.946 -241.074 530.723 17.3918 -838.944 301.554Z" stroke="#2F90AB" stroke-opacity="0.2" stroke-width="5" stroke-miterlimit="10"/>
<path d="M-959.548 316.036C-2106.88 549.086 -2040.66 1152.12 -1335.28 1210.85C-453.73 1284.42 1477 470.227 2302.76 378.451C2653.77 339.442 2148.97 95.5718 1937.39 -180.405C1725.81 -456.382 1619.59 -675.599 1172.01 -423.308C872.868 -254.61 496.355 20.307 -959.548 316.036Z" stroke="#2F90AB" stroke-opacity="0.2" stroke-width="5" stroke-miterlimit="10"/>
<path d="M-1080.17 330.493C-2292.58 572.077 -2206.75 1207.05 -1457.25 1266.64C-517.326 1341.43 1489.71 477.953 2371.82 384.967C2743.65 345.8 2279.64 70.3329 2040.1 -218.654C1801.29 -506.601 1621.17 -730.243 1140.62 -453.842C817.782 -268.117 461.966 23.1978 -1080.17 330.493Z" stroke="#2F90AB" stroke-opacity="0.2" stroke-width="5" stroke-miterlimit="10"/>
<path d="M-1200.82 344.954C-2478.3 595.073 -2371.02 1261.38 -1578.78 1322.33C-578.379 1397.22 1503.04 485.258 2441.34 391.355C2833.98 352.056 2410.76 44.993 2143.15 -256.977C1877.03 -557.24 1623.08 -784.989 1109.66 -484.557C762.675 -281.62 427.334 26.1988 -1200.82 344.954Z" stroke="#2F90AB" stroke-opacity="0.2" stroke-width="5" stroke-miterlimit="10"/>
<path d="M-1321.42 359.437C-2663.99 618.09 -2537.18 1316.47 -1700.99 1378.12C-642.555 1454.34 1515.7 492.664 2510.17 397.87C2923.86 358.359 2541.2 19.753 2245.5 -295.254C1952.18 -607.886 1624.3 -839.635 1078.01 -515.226C707.602 -295.128 392.846 29.1421 -1321.42 359.437Z" stroke="#2F90AB" stroke-opacity="0.2" stroke-width="5" stroke-miterlimit="10"/>
<path d="M-1442.05 373.893C-2850.27 641.238 -2703.47 1371.61 -1822.84 1433.92C-706.448 1511.13 1528.99 500.256 2579.36 404.384C3014.58 364.61 2674.8 -6.17203 2348.23 -333.425C2030.4 -659.084 1625.9 -894.174 1046.75 -545.735C652.52 -308.61 358.233 32.1371 -1442.05 373.893Z" stroke="#2F90AB" stroke-opacity="0.2" stroke-width="5" stroke-miterlimit="10"/>
<path d="M-1562.67 388.35C-3035.83 664.841 -2869.75 1426.76 -1944.7 1489.68C-770.255 1568.27 1542.5 507.637 2648.67 410.846C3104.47 370.967 2805.01 -31.3062 2451.07 -371.7C2105.35 -709.544 1627.5 -948.766 1015.35 -576.35C597.446 -322.091 323.326 35.9844 -1562.67 388.35Z" stroke="#2F90AB" stroke-opacity="0.2" stroke-width="5" stroke-miterlimit="10"/>
<path d="M-1683.31 402.839C-3221.58 687.731 -3035.83 1481.83 -2066.58 1545.45C-834.244 1625.29 1556.08 514.972 2717.83 417.341C3194.8 377.251 2935.3 -56.5139 2553.76 -409.944C2180.26 -759.998 1629.18 -1003.4 984.045 -606.958C542.021 -335.354 288.774 38.8004 -1683.31 402.839Z" stroke="#2F90AB" stroke-opacity="0.2" stroke-width="5" stroke-miterlimit="10"/>
<path d="M-1803.93 417.296C-3407.3 710.615 -3202.23 1537 -2188.44 1601.19C-898.107 1682.19 1569.94 522.274 2787.01 423.803C3285.28 383.503 3066.23 -81.7259 2656.5 -448.113C2254.63 -810.247 1628.85 -1057.79 952.779 -637.519C485.816 -348.918 254.242 41.5841 -1803.93 417.296Z" stroke="#2F90AB" stroke-opacity="0.2" stroke-width="5" stroke-miterlimit="10"/>
</g>
</svg>
