<svg width="1287" height="518" viewBox="0 0 1287 518" fill="none" xmlns="http://www.w3.org/2000/svg">
<path d="M490.921 427.826H801.869M0.471162 -100.329L0.471133 536.303M41.9309 -100.329L41.9309 536.303M83.3906 -100.329L83.3906 536.303M124.85 -100.329L124.85 536.303M166.31 -100.329L166.31 536.303M207.77 -100.329L207.77 536.303M249.23 -100.329L249.23 536.303M290.689 -100.329L290.689 536.303M332.149 -100.329L332.149 536.303M0 510.962H1285.25M373.609 -100.329L373.609 536.303M0 471.839H1285.25M415.069 -100.329L415.069 536.303M0 432.717H1285.25M456.528 -100.329L456.528 536.303M0 393.594H1285.25M497.988 -100.329L497.988 536.303M0 354.471H1285.25M539.448 -100.329L539.448 536.303M0 315.349H1285.25M580.908 -100.329L580.907 536.303M0 276.226H1285.25M622.367 -100.329L622.367 536.303M0 237.104H1285.25M663.827 -100.329L663.827 536.303M0 197.981H1285.25M705.287 -100.329L705.287 536.303M0 158.858H1285.25M746.747 -100.329L746.746 536.303M0 119.736H1285.25M788.206 -100.329L788.206 536.303M0 80.6131H1285.25M829.666 -100.329L829.666 536.303M0 41.4905H1285.25M871.126 -100.329L871.126 536.303M0 2.36787H1285.25M912.585 -100.329L912.585 536.303M0 -36.7548H1285.25M954.045 -100.329L954.045 536.303M0 -75.8774H1285.25M995.505 -100.329V536.303M0 -115L1285.25 -115M1036.96 -100.329V536.303M1078.42 -100.329V536.303M1119.88 -100.329V536.303M1161.34 -100.329V536.303M1202.8 -100.329V536.303M1244.26 -100.329V536.303M1285.72 -100.329V536.303" stroke="url(#paint0_radial_149_5048)" stroke-width="0.888544"/>
<defs>
<radialGradient id="paint0_radial_149_5048" cx="0" cy="0" r="1" gradientUnits="userSpaceOnUse" gradientTransform="translate(642.862 172) rotate(90) scale(364.303 719.163)">
<stop stop-color="#453F3F"/>
<stop offset="0.6" stop-color="#060606"/>
</radialGradient>
</defs>
</svg>
