<svg width="24" height="24" viewBox="0 0 24 24" fill="none" xmlns="http://www.w3.org/2000/svg">
<g clip-path="url(#clip0_9_762)">
<mask id="mask0_9_762" style="mask-type:alpha" maskUnits="userSpaceOnUse" x="2" y="1" width="21" height="21">
<path d="M21.9266 7.85169C21.8433 7.62699 21.6935 7.43304 21.4971 7.29575C21.3007 7.15846 21.067 7.08436 20.8274 7.08335H16.8632C16.7772 7.0833 16.6932 7.0566 16.6229 7.00691C16.5527 6.95722 16.4995 6.88698 16.4707 6.80585L15.0416 2.76002C14.9578 2.53649 14.8078 2.34386 14.6116 2.20787C14.4154 2.07189 14.1824 1.99902 13.9437 1.99902C13.705 1.99902 13.4719 2.07189 13.2757 2.20787C13.0795 2.34386 12.9295 2.53649 12.8457 2.76002L12.8416 2.77585L11.4166 6.80919C11.3878 6.89045 11.3345 6.96078 11.264 7.01048C11.1936 7.06018 11.1095 7.08681 11.0232 7.08669H7.05991C6.81918 7.08699 6.58438 7.16139 6.3874 7.29978C6.19042 7.43817 6.04081 7.63383 5.95889 7.8602C5.87697 8.08657 5.86672 8.33266 5.92952 8.56506C5.99232 8.79746 6.12513 9.00489 6.30991 9.15919L9.70325 11.9717C9.76787 12.0253 9.81478 12.0972 9.83783 12.178C9.86087 12.2587 9.85899 12.3445 9.83241 12.4242L9.49991 13.4167C9.46697 13.5151 9.47195 13.6223 9.51388 13.7172C9.5558 13.8122 9.63165 13.8881 9.72658 13.93C10.4489 14.2482 11.0233 14.8291 11.3332 15.555C11.421 15.7578 11.4756 15.9733 11.4949 16.1934C11.5013 16.2656 11.5265 16.3349 11.5679 16.3944C11.6093 16.4539 11.6655 16.5016 11.731 16.5327C11.7965 16.5639 11.8689 16.5774 11.9412 16.5719C12.0135 16.5665 12.0832 16.5423 12.1432 16.5017L13.7016 15.4484C13.7727 15.4004 13.8569 15.3755 13.9426 15.3772C14.0284 15.3788 14.1115 15.4069 14.1807 15.4575L17.6807 18.0209C17.8812 18.1687 18.1235 18.2488 18.3726 18.2497C18.6216 18.2506 18.8645 18.1721 19.066 18.0257C19.2674 17.8793 19.4171 17.6725 19.4931 17.4354C19.5692 17.1982 19.5678 16.943 19.4891 16.7067L18.0616 12.4242C18.035 12.3445 18.0331 12.2587 18.0562 12.178C18.0792 12.0972 18.1261 12.0253 18.1907 11.9717L21.5941 9.15169C21.7755 8.99477 21.9045 8.78614 21.964 8.55377C22.0234 8.32141 22.0104 8.07642 21.9266 7.85169Z" fill="#050000"/>
<path d="M7.3125 18.2498C7.17437 18.2498 7.04189 18.195 6.94422 18.0973C6.84654 17.9996 6.79167 17.8671 6.79167 17.729C6.79167 17.5909 6.84654 17.4584 6.94422 17.3607C7.04189 17.263 7.17437 17.2082 7.3125 17.2082H9.41667C9.55457 17.2082 9.69031 17.1739 9.81172 17.1085C9.93313 17.0431 10.0364 16.9486 10.1123 16.8335C10.1882 16.7184 10.2344 16.5862 10.2466 16.4489C10.2589 16.3115 10.2368 16.1733 10.1825 16.0465C10.0392 15.711 9.80053 15.4251 9.49606 15.2242C9.19159 15.0233 8.83478 14.9163 8.47 14.9165H4.91667C4.80616 14.9165 4.70018 14.9604 4.62204 15.0385C4.5439 15.1167 4.5 15.2227 4.5 15.3332V20.7498C4.5 20.8603 4.5439 20.9663 4.62204 21.0445C4.70018 21.1226 4.80616 21.1665 4.91667 21.1665H13.8867C14.3807 21.1661 14.8544 20.9696 15.2038 20.6203C15.5531 20.2709 15.7496 19.7972 15.75 19.3032V19.0832C15.75 18.8622 15.6622 18.6502 15.5059 18.4939C15.3496 18.3376 15.1377 18.2498 14.9167 18.2498H7.3125Z" fill="#050000"/>
<path d="M3.66667 15.1248C3.6624 14.9052 3.57323 14.6957 3.41787 14.5403C3.2625 14.3849 3.05301 14.2958 2.83333 14.2915C2.61232 14.2915 2.40036 14.3793 2.24408 14.5356C2.0878 14.6919 2 14.9038 2 15.1248V21.1665C2 21.3875 2.0878 21.5995 2.24408 21.7558C2.40036 21.912 2.61232 21.9998 2.83333 21.9998C3.05146 21.9908 3.25822 21.9001 3.41259 21.7458C3.56696 21.5914 3.65765 21.3846 3.66667 21.1665V15.1248Z" fill="#050000"/>
</mask>
<g mask="url(#mask0_9_762)">
<rect width="24" height="24" fill="#2F90AB"/>
</g>
</g>
<defs>
<clipPath id="clip0_9_762">
<rect width="24" height="24" fill="white"/>
</clipPath>
</defs>
</svg>
