<svg width="59" height="58" viewBox="0 0 59 58" fill="none" xmlns="http://www.w3.org/2000/svg">
<rect width="58.7342" height="58" rx="9.5443" fill="url(#paint0_linear_9_872)"/>
<path d="M29.411 48.9375H29.3233C18.3573 48.9375 9.43555 40.0131 9.43555 29.0439V28.9561C9.43555 17.9869 18.3573 9.0625 29.3233 9.0625H29.411C40.377 9.0625 49.2988 17.9869 49.2988 28.9561V29.0439C49.2988 40.0131 40.377 48.9375 29.411 48.9375ZM29.3233 10.4122C19.1008 10.4122 10.7849 18.7306 10.7849 28.9561V29.0439C10.7849 39.2694 19.1008 47.5878 29.3233 47.5878H29.411C39.6336 47.5878 47.9495 39.2694 47.9495 29.0439V28.9561C47.9495 18.7306 39.6336 10.4122 29.411 10.4122H29.3233Z" fill="white"/>
<path d="M35.328 17.5752H23.4107C20.1184 17.5752 17.4399 20.2544 17.4399 23.5477V34.4535C17.4399 37.7469 20.1184 40.4261 23.4107 40.4261H35.328C38.6204 40.4261 41.2988 37.7469 41.2988 34.4535V23.5477C41.2988 20.2544 38.6204 17.5752 35.328 17.5752ZM19.5462 23.5477C19.5462 21.4165 21.2801 19.6821 23.4107 19.6821H35.328C37.4586 19.6821 39.1925 21.4165 39.1925 23.5477V34.4535C39.1925 36.5847 37.4586 38.3192 35.328 38.3192H23.4107C21.2801 38.3192 19.5462 36.5847 19.5462 34.4535V23.5477Z" fill="white"/>
<path d="M29.3659 34.5553C32.4275 34.5553 34.9197 32.0637 34.9197 28.9998C34.9197 25.9359 32.4288 23.4443 29.3659 23.4443C26.3029 23.4443 23.812 25.9359 23.812 28.9998C23.812 32.0637 26.3029 34.5553 29.3659 34.5553ZM29.3659 25.5526C31.2671 25.5526 32.8134 27.0994 32.8134 29.0012C32.8134 30.9029 31.2671 32.4497 29.3659 32.4497C27.4647 32.4497 25.9183 30.9029 25.9183 29.0012C25.9183 27.0994 27.4647 25.5526 29.3659 25.5526Z" fill="white"/>
<path d="M35.4329 24.3413C36.2574 24.3413 36.9293 23.6706 36.9293 22.8445C36.9293 22.0185 36.2587 21.3477 35.4329 21.3477C34.6071 21.3477 33.9365 22.0185 33.9365 22.8445C33.9365 23.6706 34.6071 24.3413 35.4329 24.3413Z" fill="white"/>
<defs>
<linearGradient id="paint0_linear_9_872" x1="8.32327" y1="9.45403e-07" x2="50.4109" y2="58" gradientUnits="userSpaceOnUse">
<stop stop-color="#334359"/>
<stop offset="1" stop-color="#58667B"/>
</linearGradient>
</defs>
</svg>
