<svg width="59" height="58" viewBox="0 0 59 58" fill="none" xmlns="http://www.w3.org/2000/svg">
<rect width="58.7342" height="58" rx="9.5443" fill="url(#paint0_linear_9_868)"/>
<path d="M29.3672 48.9375C18.3764 48.9375 9.43555 39.994 9.43555 29C9.43555 18.006 18.3764 9.0625 29.3672 9.0625C40.3579 9.0625 49.2988 18.006 49.2988 29C49.2988 39.994 40.3579 48.9375 29.3672 48.9375ZM29.3672 10.4159C19.1233 10.4159 10.7886 18.7531 10.7886 29C10.7886 39.2469 19.1233 47.5841 29.3672 47.5841C39.611 47.5841 47.9457 39.2469 47.9457 29C47.9457 18.7531 39.611 10.4159 29.3672 10.4159Z" fill="white"/>
<path d="M41.4907 25.0081C41.3392 23.545 41.0131 21.9277 39.813 21.0777C38.8834 20.4186 37.6616 20.3942 36.521 20.3956C34.1099 20.3969 31.6974 20.3996 29.2863 20.401C26.9672 20.4037 24.6481 20.405 22.329 20.4077C21.3602 20.4091 20.4185 20.3333 19.5187 20.7529C18.7461 21.1129 18.1413 21.7977 17.7774 22.5597C17.2727 23.6194 17.1672 24.82 17.1063 25.992C16.994 28.1264 17.0061 30.2662 17.1401 32.3992C17.2389 33.9557 17.4892 35.6759 18.692 36.6679C19.7582 37.5463 21.2628 37.5896 22.6456 37.591C27.0349 37.595 31.4255 37.5991 35.8161 37.6018C36.379 37.6032 36.9662 37.5923 37.5399 37.5301C38.6683 37.4083 39.744 37.0848 40.4692 36.2484C41.2012 35.4052 41.3893 34.2318 41.5002 33.1206C41.7708 30.4245 41.7681 27.7028 41.4907 25.0081ZM26.748 32.7782V25.2192L33.2913 28.998L26.748 32.7782Z" fill="white"/>
<defs>
<linearGradient id="paint0_linear_9_868" x1="8.32327" y1="9.45403e-07" x2="50.4109" y2="58" gradientUnits="userSpaceOnUse">
<stop stop-color="#334359"/>
<stop offset="1" stop-color="#58667B"/>
</linearGradient>
</defs>
</svg>
