<svg width="59" height="58" viewBox="0 0 59 58" fill="none" xmlns="http://www.w3.org/2000/svg">
<rect width="58.7342" height="58" rx="9.5443" fill="url(#paint0_linear_9_883)"/>
<path d="M29.411 48.9375H29.3233C18.3573 48.9375 9.43555 40.0131 9.43555 29.0439V28.9562C9.43555 17.9869 18.3573 9.0625 29.3233 9.0625H29.411C40.377 9.0625 49.2988 17.9869 49.2988 28.9562V29.0439C49.2988 40.0131 40.377 48.9375 29.411 48.9375ZM29.3233 10.4122C19.1008 10.4122 10.7849 18.7306 10.7849 28.9562V29.0439C10.7849 39.2694 19.1008 47.5878 29.3233 47.5878H29.411C39.6336 47.5878 47.9495 39.2694 47.9495 29.0439V28.9562C47.9495 18.7306 39.6336 10.4122 29.411 10.4122H29.3233Z" fill="white"/>
<path d="M32.0471 24.5291V28.7253H37.2367L36.4149 34.378H32.0471V47.4015C31.1714 47.523 30.2755 47.5865 29.366 47.5865C28.3162 47.5865 27.2853 47.5028 26.2814 47.3408V34.378H21.4954V28.7253H26.2814V23.591C26.2814 20.4056 28.8627 17.8223 32.0485 17.8223V17.825C32.0579 17.825 32.066 17.8223 32.0755 17.8223H37.238V22.711H33.8647C32.8621 22.711 32.0485 23.5249 32.0485 24.5277L32.0471 24.5291Z" fill="white"/>
<defs>
<linearGradient id="paint0_linear_9_883" x1="8.32327" y1="9.45403e-07" x2="50.4109" y2="58" gradientUnits="userSpaceOnUse">
<stop stop-color="#334359"/>
<stop offset="1" stop-color="#58667B"/>
</linearGradient>
</defs>
</svg>
