<svg width="59" height="58" viewBox="0 0 59 58" fill="none" xmlns="http://www.w3.org/2000/svg">
<rect width="58.7342" height="58" rx="9.5443" fill="url(#paint0_linear_9_879)"/>
<path d="M29.4115 49.1903H29.3226C18.2178 49.1903 9.18311 40.1529 9.18311 29.0449V28.956C9.18311 17.8479 18.2178 8.81055 29.3226 8.81055H29.4115C40.5163 8.81055 49.551 17.8479 49.551 28.956V29.0449C49.551 40.1529 40.5163 49.1903 29.4115 49.1903ZM29.3226 10.1774C18.9707 10.1774 10.5495 18.601 10.5495 28.956V29.0449C10.5495 39.3998 18.9707 47.8235 29.3226 47.8235H29.4115C39.7634 47.8235 48.1846 39.3998 48.1846 29.0449V28.956C48.1846 18.601 39.7634 10.1774 29.4115 10.1774H29.3226Z" fill="white"/>
<path d="M17.252 28.3345C17.3066 28.3072 17.3613 28.2812 17.4146 28.2566C18.341 27.8274 19.2798 27.4256 20.2171 27.0237C20.2677 27.0237 20.3524 26.9649 20.4002 26.9458C20.4726 26.9144 20.5451 26.8843 20.6175 26.8529C20.7569 26.7927 20.8962 26.7339 21.0342 26.6738C21.313 26.5549 21.5903 26.436 21.8691 26.3171C22.4252 26.0793 22.9813 25.8414 23.5375 25.6022C24.6497 25.1266 25.7634 24.6495 26.8756 24.1739C27.9879 23.6982 29.1015 23.2212 30.2138 22.7456C31.326 22.2699 32.4397 21.7929 33.5519 21.3173C34.6642 20.8416 35.7778 20.3646 36.8901 19.889C37.1374 19.7823 37.4052 19.6238 37.6703 19.5773C37.893 19.5377 38.1103 19.4611 38.3343 19.4188C38.7593 19.3381 39.228 19.3053 39.6352 19.4816C39.7759 19.5432 39.9057 19.6292 40.0137 19.7372C40.5302 20.2484 40.4577 21.0877 40.3484 21.8066C39.5873 26.8173 38.8263 31.8294 38.0638 36.8402C37.96 37.5277 37.8178 38.2822 37.2754 38.7168C36.8163 39.0845 36.1631 39.1255 35.5961 38.9696C35.029 38.8125 34.5289 38.4831 34.0384 38.1591C32.0038 36.8115 29.9678 35.4638 27.9332 34.1161C27.4495 33.7963 26.9112 33.378 26.9166 32.7971C26.9194 32.4472 27.1284 32.1356 27.3416 31.8581C29.1097 29.5509 31.6608 27.9654 33.5587 25.7649C33.8266 25.4546 34.037 24.8942 33.6694 24.7152C33.4508 24.6086 33.1994 24.7534 32.9999 24.8915C30.4911 26.6342 27.9838 28.3782 25.4751 30.1209C24.6566 30.6895 23.7985 31.2745 22.8119 31.4139C21.9292 31.5396 21.0411 31.2936 20.1871 31.0421C19.4711 30.8316 18.7564 30.6157 18.0445 30.3929C17.666 30.2753 17.2752 30.1482 16.9828 29.8817C16.6904 29.6152 16.5224 29.1669 16.6986 28.8115C16.8093 28.5887 17.0238 28.4479 17.2493 28.3331L17.252 28.3345Z" fill="white"/>
<defs>
<linearGradient id="paint0_linear_9_879" x1="8.32327" y1="9.45403e-07" x2="50.4109" y2="58" gradientUnits="userSpaceOnUse">
<stop stop-color="#334359"/>
<stop offset="1" stop-color="#58667B"/>
</linearGradient>
</defs>
</svg>
