<svg width="49" height="49" viewBox="0 0 49 49" fill="none" xmlns="http://www.w3.org/2000/svg">
<path d="M25 49C38.2548 49 49 38.2548 49 25C49 11.7452 38.2548 1 25 1C11.7452 1 1 11.7452 1 25C1 38.2548 11.7452 49 25 49Z" fill="#E84142"/>
<g clip-path="url(#clip0_13_1164)">
<path fill-rule="evenodd" clip-rule="evenodd" d="M34.0295 33.816V35.9392C34.0295 36.5224 33.7912 37.0522 33.4074 37.436C33.0235 37.8198 32.4937 38.0581 31.9106 38.0581H26.6815C26.0983 38.0581 25.5685 37.8198 25.1846 37.436C24.8008 37.0522 24.5625 36.5223 24.5625 35.9392V35.4908H23.8604C23.3466 35.4908 22.9263 35.0704 22.9263 34.5567C22.9263 34.0429 23.3466 33.6226 23.8604 33.6226H26.1396C26.6534 33.6226 27.0738 34.0429 27.0738 34.5567C27.0738 35.0705 26.6534 35.4908 26.1396 35.4908H25.4375V35.9392C25.4375 36.2808 25.5776 36.5917 25.8032 36.8174C26.0289 37.043 26.3398 37.1831 26.6814 37.1831H31.9105C32.2522 37.1831 32.5631 37.0431 32.7887 36.8174C33.0143 36.5917 33.1545 36.2808 33.1545 35.9392V33.816C31.955 33.6069 31.0357 32.5545 31.0357 31.2976V24.7648C31.0357 23.6647 31.7401 22.7211 32.7201 22.3626V21.4056C32.7201 19.2834 31.8514 17.3536 30.4517 15.9539C29.052 14.5542 27.1221 13.6855 25.0001 13.6855C22.8779 13.6855 20.9481 14.5542 19.5484 15.9539C18.1487 17.3536 17.28 19.2835 17.28 21.4056V22.3626C18.26 22.7211 18.9644 23.6646 18.9644 24.7648V31.2975C18.9644 32.7035 17.8141 33.8538 16.4082 33.8538C15.0022 33.8538 13.8519 32.7035 13.8519 31.2975V24.7648C13.8519 23.6646 14.5563 22.7211 15.5363 22.3626V21.4056C15.5363 18.8021 16.6008 16.4359 18.3156 14.7211C20.0304 13.0063 22.3965 11.9418 25 11.9418C27.6035 11.9418 29.9696 13.0062 31.6845 14.7211C33.3994 16.436 34.4638 18.8022 34.4638 21.4056V22.3626C35.4439 22.7211 36.1483 23.6646 36.1483 24.7648V31.2975C36.1482 32.5545 35.2289 33.6069 34.0295 33.816ZM37.521 25.2856H37.0232V31.1556H37.521C38.0938 31.1556 38.5625 30.6869 38.5625 30.1141V26.327C38.5625 25.7542 38.0938 25.2856 37.521 25.2856ZM12.479 25.2856H12.9768V31.1556H12.479C11.9061 31.1556 11.4375 30.6869 11.4375 30.1141V26.327C11.4375 25.7542 11.9061 25.2856 12.479 25.2856Z" fill="white"/>
</g>
<defs>
<clipPath id="clip0_13_1164">
<rect width="28" height="28" fill="white" transform="translate(11 11)"/>
</clipPath>
</defs>
</svg>
