<svg width="64" height="64" viewBox="0 0 64 64" fill="none" xmlns="http://www.w3.org/2000/svg">
<rect width="63.1688" height="63.1688" rx="31.5844" fill="#627EEA" fill-opacity="0.2"/>
<path d="M31.5845 52.5844C43.1825 52.5844 52.5845 43.1823 52.5845 31.5844C52.5845 19.9864 43.1825 10.5844 31.5845 10.5844C19.9865 10.5844 10.5845 19.9864 10.5845 31.5844C10.5845 43.1823 19.9865 52.5844 31.5845 52.5844Z" fill="#627EEA"/>
<path d="M36.4331 23.2812H39.0581C40.5079 23.2812 41.6831 24.4565 41.6831 25.9062V38.8438C41.6831 40.2935 40.5079 41.4688 39.0581 41.4688H36.4331C34.9834 41.4688 33.8081 40.2935 33.8081 38.8438V25.9062C33.8081 24.4565 34.9834 23.2812 36.4331 23.2812Z" stroke="white" stroke-width="1.1"/>
<path d="M28.1831 42.0312H25.7456C24.2959 42.0312 23.1206 40.856 23.1206 39.4062V32.8438C23.1206 31.394 24.2959 30.2188 25.7456 30.2188H28.1831C29.6329 30.2188 30.8081 31.394 30.8081 32.8438V39.4062C30.8081 40.856 29.6329 42.0312 28.1831 42.0312Z" stroke="white" stroke-width="1.1"/>
<path d="M29.3081 27.2188H24.6206C23.7922 27.2188 23.1206 26.5472 23.1206 25.7188V24.7812C23.1206 23.9528 23.7922 23.2812 24.6206 23.2812H29.3081C30.1365 23.2812 30.8081 23.9528 30.8081 24.7812V25.7188C30.8081 26.5472 30.1365 27.2188 29.3081 27.2188Z" stroke="white" stroke-width="1.1"/>
</svg>
