<svg width="49" height="49" viewBox="0 0 49 49" fill="none" xmlns="http://www.w3.org/2000/svg">
<path d="M25 49C38.2548 49 49 38.2548 49 25C49 11.7452 38.2548 1 25 1C11.7452 1 1 11.7452 1 25C1 38.2548 11.7452 49 25 49Z" fill="#E6007A"/>
<path d="M36.187 30.1045C36.187 30.7604 35.9925 31.4016 35.628 31.947C35.2636 32.4924 34.7456 32.9175 34.1396 33.1685C33.5336 33.4195 32.8668 33.4852 32.2235 33.3572C31.5801 33.2293 30.9892 32.9134 30.5253 32.4496C30.0615 31.9858 29.7457 31.3948 29.6177 30.7515C29.4897 30.1081 29.5554 29.4413 29.8064 28.8353C30.0574 28.2293 30.4825 27.7113 31.0279 27.3469C31.5733 26.9825 32.2145 26.788 32.8705 26.788C33.7498 26.7889 34.5928 27.1386 35.2146 27.7604C35.8363 28.3821 36.186 29.2252 36.187 30.1045ZM30.808 34.45V37.92C30.8079 38.007 30.8306 38.0926 30.8738 38.1682C30.917 38.2438 30.9791 38.3068 31.0541 38.351C31.1291 38.3952 31.2144 38.419 31.3014 38.4202C31.3885 38.4213 31.4743 38.3997 31.5505 38.3575L32.5075 37.8275C32.6186 37.7659 32.7436 37.7336 32.8707 37.7336C32.9978 37.7336 33.1228 37.7659 33.234 37.8275L34.1905 38.3575C34.2666 38.3996 34.3524 38.4211 34.4394 38.4199C34.5263 38.4187 34.6115 38.3948 34.6864 38.3506C34.7614 38.3064 34.8235 38.2435 34.8666 38.168C34.9098 38.0924 34.9325 38.0069 34.9325 37.92V34.45C34.2891 34.7596 33.5842 34.9204 32.8702 34.9204C32.1562 34.9204 31.4514 34.7596 30.808 34.45ZM39.0205 15.21V34.385C39.0205 34.5176 38.9678 34.6447 38.874 34.7385C38.7803 34.8323 38.6531 34.885 38.5205 34.885H36.4305V33.335C37.2388 32.4536 37.6867 31.3009 37.6855 30.105C37.6874 29.3221 37.4985 28.5506 37.135 27.8573C36.7715 27.164 36.2445 26.5697 35.5995 26.126C34.9546 25.6824 34.2112 25.4026 33.4338 25.311C32.6563 25.2195 31.8683 25.3188 31.1379 25.6005C30.4075 25.8822 29.7568 26.3377 29.2422 26.9276C28.7275 27.5175 28.3645 28.224 28.1845 28.9858C28.0045 29.7477 28.013 30.5419 28.2092 31.2998C28.4054 32.0576 28.7834 32.7562 29.3105 33.335V34.885H11.4805C11.3479 34.885 11.2207 34.8323 11.1269 34.7385C11.0331 34.6447 10.9805 34.5176 10.9805 34.385V15.21C10.9805 15.0774 11.0331 14.9502 11.1269 14.8564C11.2207 14.7626 11.3479 14.71 11.4805 14.71H38.5205C38.6531 14.71 38.7803 14.7626 38.874 14.8564C38.9678 14.9502 39.0205 15.0774 39.0205 15.21ZM19.6755 18.745C19.6753 18.8435 19.6946 18.9411 19.7323 19.0321C19.7699 19.1232 19.8252 19.2059 19.8948 19.2756C19.9645 19.3453 20.0472 19.4005 20.1383 19.4381C20.2294 19.4758 20.3269 19.4951 20.4255 19.495H29.5755C29.7744 19.495 29.9651 19.4159 30.1058 19.2753C30.2465 19.1346 30.3255 18.9439 30.3255 18.745C30.3255 18.546 30.2465 18.3553 30.1058 18.2146C29.9651 18.074 29.7744 17.995 29.5755 17.995H20.4255C20.3269 17.9948 20.2294 18.0141 20.1383 18.0518C20.0472 18.0894 19.9645 18.1447 19.8948 18.2143C19.8252 18.284 19.7699 18.3667 19.7323 18.4578C19.6946 18.5488 19.6753 18.6464 19.6755 18.745ZM26.4705 28.965C26.4706 28.8664 26.4513 28.7688 26.4136 28.6778C26.376 28.5867 26.3208 28.504 26.2511 28.4343C26.1814 28.3647 26.0987 28.3094 26.0076 28.2718C25.9166 28.2341 25.819 28.2148 25.7205 28.215H14.5155C14.3166 28.215 14.1258 28.294 13.9851 28.4346C13.8445 28.5753 13.7655 28.766 13.7655 28.965C13.7655 29.1639 13.8445 29.3546 13.9851 29.4953C14.1258 29.6359 14.3166 29.715 14.5155 29.715H25.7205C25.819 29.7151 25.9166 29.6958 26.0076 29.6581C26.0987 29.6205 26.1814 29.5653 26.2511 29.4956C26.3208 29.4259 26.376 29.3432 26.4136 29.2521C26.4513 29.1611 26.4706 29.0635 26.4705 28.965ZM27.4955 25.56C27.4956 25.4614 27.4763 25.3638 27.4386 25.2728C27.401 25.1817 27.3458 25.099 27.2761 25.0293C27.2064 24.9597 27.1237 24.9044 27.0326 24.8668C26.9416 24.8291 26.844 24.8098 26.7455 24.81H14.5155C14.3166 24.81 14.1258 24.889 13.9851 25.0296C13.8445 25.1703 13.7655 25.361 13.7655 25.56C13.7655 25.7589 13.8445 25.9496 13.9851 26.0903C14.1258 26.2309 14.3166 26.31 14.5155 26.31H26.7455C26.844 26.3101 26.9416 26.2908 27.0326 26.2531C27.1237 26.2155 27.2064 26.1603 27.2761 26.0906C27.3458 26.0209 27.401 25.9382 27.4386 25.8471C27.4763 25.7561 27.4956 25.6585 27.4955 25.56ZM36.2355 22.15C36.2349 21.9512 36.1558 21.7608 36.0152 21.6202C35.8747 21.4797 35.6842 21.4005 35.4855 21.4H14.5155C14.3166 21.4 14.1258 21.479 13.9851 21.6196C13.8445 21.7603 13.7655 21.951 13.7655 22.15C13.7655 22.3489 13.8445 22.5396 13.9851 22.6803C14.1258 22.8209 14.3166 22.9 14.5155 22.9H35.4855C35.584 22.9001 35.6816 22.8808 35.7726 22.8431C35.8637 22.8055 35.9464 22.7503 36.0161 22.6806C36.0858 22.6109 36.141 22.5282 36.1786 22.4371C36.2163 22.3461 36.2356 22.2485 36.2355 22.15Z" fill="white"/>
</svg>
