<svg width="64" height="64" viewBox="0 0 64 64" fill="none" xmlns="http://www.w3.org/2000/svg">
<rect width="63.1688" height="63.1688" rx="31.5844" fill="#F49B33" fill-opacity="0.2"/>
<path d="M31.5845 52.5844C43.1825 52.5844 52.5845 43.1823 52.5845 31.5844C52.5845 19.9864 43.1825 10.5844 31.5845 10.5844C19.9865 10.5844 10.5845 19.9864 10.5845 31.5844C10.5845 43.1823 19.9865 52.5844 31.5845 52.5844Z" fill="#F49B33"/>
<g clip-path="url(#clip0_13_1130)">
<path d="M43.5925 28.0189C43.5925 28.1269 43.5383 28.4509 43.2133 28.6129L31.405 33.0949C31.2425 33.1489 31.08 33.1489 30.9716 33.0949L19.1633 28.6129C18.7841 28.4509 18.73 28.1269 18.73 28.0189C18.73 27.9109 18.7841 27.5869 19.1633 27.4249L30.9716 22.9429C31.0258 22.8889 31.1341 22.8889 31.1883 22.8889C31.2425 22.8889 31.3508 22.8889 31.405 22.9429L43.2133 27.4249C43.5925 27.5869 43.5925 27.9109 43.5925 28.0189ZM44.73 35.3629V36.7129C44.73 37.0369 44.4591 37.2529 44.1883 37.2529C43.8633 37.2529 43.6466 36.9829 43.6466 36.7129V35.3629C43.6466 35.0389 43.9175 34.8229 44.1883 34.8229C44.4591 34.7689 44.73 35.0389 44.73 35.3629Z" fill="white"/>
<path d="M31.7847 34.1749L40.1264 30.9889V38.2249C40.1264 39.6829 36.1722 40.8169 31.1347 40.8169C26.0972 40.8169 22.1431 39.6829 22.1431 38.2249V30.9889L30.4847 34.1749C30.9181 34.3369 31.4056 34.3369 31.7847 34.1749ZM44.7306 28.0189V32.9329C44.7306 33.2569 44.4597 33.4729 44.1889 33.4729C43.8639 33.4729 43.6472 33.2029 43.6472 32.9329V29.6929C44.2972 29.4229 44.7306 28.7749 44.7306 28.0189Z" fill="white"/>
</g>
<defs>
<clipPath id="clip0_13_1130">
<rect width="26" height="27" fill="white" transform="translate(19.1206 17.2811)"/>
</clipPath>
</defs>
</svg>
