<svg width="24" height="24" viewBox="0 0 24 24" fill="none" xmlns="http://www.w3.org/2000/svg">
<g clip-path="url(#clip0_9_765)">
<mask id="mask0_9_765" style="mask-type:alpha" maskUnits="userSpaceOnUse" x="2" y="2" width="20" height="20">
<path d="M12.4117 20.6148C12.3726 20.6575 12.3251 20.6916 12.2722 20.7149C12.2192 20.7383 12.162 20.7503 12.1042 20.7503C12.0463 20.7503 11.9891 20.7383 11.9361 20.7149C11.8832 20.6916 11.8357 20.6575 11.7967 20.6148L8.48582 16.9998C8.46181 16.9732 8.43125 16.9533 8.39718 16.9422C8.36311 16.9311 8.32673 16.9291 8.29165 16.9365C6.50028 17.2421 4.80205 17.9517 3.32582 19.0115C3.07326 19.2048 2.86909 19.4542 2.72939 19.74C2.58969 20.0258 2.51829 20.3401 2.52082 20.6581V21.5831C2.52082 21.6936 2.56472 21.7996 2.64286 21.8778C2.721 21.9559 2.82698 21.9998 2.93748 21.9998H21.2708C21.3813 21.9998 21.4873 21.9559 21.5654 21.8778C21.6436 21.7996 21.6875 21.6936 21.6875 21.5831V20.6615C21.69 20.3432 21.6185 20.0287 21.4786 19.7428C21.3388 19.4569 21.1344 19.2074 20.8817 19.014C19.4055 17.9547 17.7076 17.2454 15.9167 16.9398C15.8816 16.9326 15.8452 16.9347 15.8112 16.9458C15.7772 16.9569 15.7466 16.9767 15.7225 17.0031L12.4117 20.6148Z" fill="#050000"/>
<path d="M2.93761 9.08316C2.93833 9.11141 2.94281 9.13944 2.95094 9.1665C2.96312 9.2132 2.9587 9.26269 2.93844 9.3065C2.50779 10.2858 2.29429 11.3468 2.31261 12.4165C2.31261 12.5823 2.37846 12.7412 2.49567 12.8584C2.61288 12.9756 2.77185 13.0415 2.93761 13.0415H4.60428C4.77004 13.0415 4.92901 12.9756 5.04622 12.8584C5.16343 12.7412 5.22928 12.5823 5.22928 12.4165C5.24735 11.3474 5.03386 10.287 4.60344 9.30816C4.5832 9.26376 4.57878 9.21376 4.59094 9.1665C4.59908 9.13944 4.60356 9.11141 4.60428 9.08316V6.73316C4.6043 6.68586 4.58822 6.63995 4.55869 6.60299C4.52916 6.56604 4.48792 6.54024 4.44178 6.52983L3.19178 6.24983C3.16134 6.2429 3.12974 6.2429 3.09931 6.24982C3.06887 6.25674 3.04038 6.27042 3.01594 6.28983C2.99113 6.30987 2.97119 6.33529 2.95762 6.36416C2.94405 6.39303 2.93721 6.4246 2.93761 6.4565V9.08316Z" fill="#050000"/>
<path d="M12.2893 8.229C12.1676 8.25672 12.0411 8.25672 11.9193 8.229L6.52518 6.99983C6.49475 6.9929 6.46315 6.9929 6.43271 6.99982C6.40228 7.00674 6.37379 7.02042 6.34935 7.03983C6.32453 7.05987 6.30459 7.08529 6.29102 7.11416C6.27745 7.14303 6.27061 7.1746 6.27101 7.2065V11.1665C6.27101 12.7136 6.88559 14.1973 7.97956 15.2913C9.07352 16.3852 10.5573 16.9998 12.1043 16.9998C13.6514 16.9998 15.1352 16.3852 16.2291 15.2913C17.3231 14.1973 17.9377 12.7136 17.9377 11.1665V7.2065C17.9381 7.1746 17.9312 7.14303 17.9177 7.11416C17.9041 7.08529 17.8842 7.05987 17.8593 7.03983C17.8349 7.02042 17.8064 7.00674 17.776 6.99982C17.7455 6.9929 17.7139 6.9929 17.6835 6.99983L12.2893 8.229ZM12.1043 15.3332C11.0028 15.3219 9.94951 14.8793 9.17054 14.1003C8.39157 13.3213 7.94896 12.2681 7.93768 11.1665V9.71233C7.93754 9.68053 7.94471 9.64912 7.95864 9.62053C7.97256 9.59194 7.99288 9.56694 8.018 9.54745C8.04313 9.52796 8.0724 9.51451 8.10356 9.50813C8.13471 9.50175 8.16691 9.50262 8.19768 9.51066C9.47829 9.80587 10.7904 9.94217 12.1043 9.9165C13.4183 9.94217 14.7304 9.80587 16.011 9.51066C16.0418 9.50262 16.074 9.50175 16.1051 9.50813C16.1363 9.51451 16.1656 9.52796 16.1907 9.54745C16.2158 9.56694 16.2361 9.59194 16.2501 9.62053C16.264 9.64912 16.2712 9.68053 16.271 9.71233V11.1665C16.2597 12.2681 15.8171 13.3213 15.0382 14.1003C14.2592 14.8793 13.2059 15.3219 12.1043 15.3332Z" fill="#050000"/>
<path d="M13.7708 12.2082C14.2311 12.2082 14.6042 11.8351 14.6042 11.3748C14.6042 10.9146 14.2311 10.5415 13.7708 10.5415C13.3106 10.5415 12.9375 10.9146 12.9375 11.3748C12.9375 11.8351 13.3106 12.2082 13.7708 12.2082Z" fill="#050000"/>
<path d="M10.4376 12.2082C10.8978 12.2082 11.2709 11.8351 11.2709 11.3748C11.2709 10.9146 10.8978 10.5415 10.4376 10.5415C9.97734 10.5415 9.60425 10.9146 9.60425 11.3748C9.60425 11.8351 9.97734 12.2082 10.4376 12.2082Z" fill="#050000"/>
<path d="M13.0003 13.1351H11.3336C11.2161 13.1369 11.1024 13.1775 11.0103 13.2505C10.9182 13.3236 10.8528 13.425 10.8243 13.539C10.7958 13.6531 10.8057 13.7733 10.8526 13.8811C10.8995 13.9889 10.9807 14.0782 11.0836 14.1351C11.1992 14.1967 11.3206 14.2467 11.4461 14.2843C11.6828 14.3517 11.9275 14.387 12.1736 14.3893C12.4171 14.3901 12.6595 14.355 12.8928 14.2851C13.0187 14.2474 13.1405 14.1969 13.2561 14.1343C13.3596 14.0778 13.4415 13.9886 13.4888 13.8806C13.5362 13.7726 13.5464 13.652 13.5178 13.5376C13.4892 13.4232 13.4234 13.3215 13.3308 13.2486C13.2382 13.1756 13.124 13.1354 13.0061 13.1343L13.0003 13.1351Z" fill="#050000"/>
<path d="M2.53933 4.60917C2.55876 4.68172 2.59744 4.74767 2.65128 4.80004C2.70511 4.85241 2.77211 4.88925 2.84516 4.90667L12.0118 6.99001C12.0728 7.00335 12.1359 7.00335 12.1968 6.99001L21.3635 4.90667C21.4366 4.88925 21.5035 4.85241 21.5574 4.80004C21.6112 4.74767 21.6499 4.68172 21.6693 4.60917C21.6801 4.57373 21.6863 4.53704 21.6877 4.50001C21.6878 4.40551 21.6557 4.31379 21.5968 4.23989C21.5379 4.166 21.4556 4.11432 21.3635 4.09334L12.1968 2.01001C12.1359 1.99666 12.0728 1.99666 12.0118 2.01001L2.84516 4.09334C2.75302 4.11432 2.67075 4.166 2.61185 4.23989C2.55294 4.31379 2.52091 4.40551 2.521 4.50001C2.52235 4.53704 2.52851 4.57373 2.53933 4.60917Z" fill="#050000"/>
</mask>
<g mask="url(#mask0_9_765)">
<rect width="24" height="24" fill="#2F90AB"/>
</g>
</g>
<defs>
<clipPath id="clip0_9_765">
<rect width="24" height="24" fill="white"/>
</clipPath>
</defs>
</svg>
